<svg xmlns="http://www.w3.org/2000/svg" viewBox="0 0 1200 800" role="img" aria-label="Family portrait placeholder">
	<defs>
		<linearGradient id="sky" x1="0" y1="0" x2="0" y2="1">
			<stop offset="0" stop-color="#fbe6c4" />
			<stop offset="0.55" stop-color="#f3c489" />
			<stop offset="1" stop-color="#c25e3b" />
		</linearGradient>
		<linearGradient id="ground" x1="0" y1="0" x2="0" y2="1">
			<stop offset="0" stop-color="#3b6743" />
			<stop offset="1" stop-color="#1f3b29" />
		</linearGradient>
		<radialGradient id="sun" cx="0.78" cy="0.32" r="0.18">
			<stop offset="0" stop-color="#fff3c2" />
			<stop offset="1" stop-color="#fff3c2" stop-opacity="0" />
		</radialGradient>
	</defs>
	<rect width="1200" height="800" fill="url(#sky)" />
	<circle cx="930" cy="260" r="80" fill="#ffe39a" opacity="0.95" />
	<rect width="1200" height="800" fill="url(#sun)" />
	<path d="M0,560 C200,520 400,580 600,540 C800,500 1000,560 1200,520 L1200,800 L0,800 Z" fill="url(#ground)" />
	<path d="M0,620 C200,600 400,650 600,610 C800,580 1000,630 1200,600 L1200,800 L0,800 Z" fill="#152d1d" opacity="0.45" />
	<g fill="#0a1b12">
		<ellipse cx="430" cy="700" rx="34" ry="9" opacity="0.45" />
		<ellipse cx="540" cy="710" rx="28" ry="8" opacity="0.45" />
		<ellipse cx="640" cy="700" rx="34" ry="9" opacity="0.45" />
		<ellipse cx="740" cy="710" rx="22" ry="7" opacity="0.45" />
	</g>
	<g>
		<rect x="396" y="540" width="72" height="160" rx="20" fill="#0a2540" />
		<circle cx="432" cy="510" r="40" fill="#e6c39c" />
		<rect x="510" y="555" width="62" height="145" rx="18" fill="#b94032" />
		<circle cx="541" cy="525" r="34" fill="#e6c39c" />
		<rect x="612" y="540" width="70" height="160" rx="20" fill="#2c5d44" />
		<circle cx="647" cy="510" r="40" fill="#e6c39c" />
		<rect x="722" y="580" width="40" height="120" rx="14" fill="#d4a637" />
		<circle cx="742" cy="555" r="26" fill="#e6c39c" />
	</g>
	<g font-family="Georgia, serif" fill="#fff" opacity="0.85" text-anchor="middle">
		<text x="600" y="170" font-size="42" font-style="italic">Replace me</text>
		<text x="600" y="220" font-size="18" letter-spacing="3">/static/family/family.jpg</text>
	</g>
</svg>
